<mxfile host="app.diagrams.net" agent="Mozilla/5.0 (X11; Linux x86_64) AppleWebKit/537.36 (KHTML, like Gecko) Chrome/133.0.0.0 Safari/537.36" version="26.0.8">
  <diagram name="Page-1" id="ufDv_SJQBkfKq01LoG8H">
    <mxGraphModel dx="1078" dy="1270" grid="0" gridSize="10" guides="1" tooltips="1" connect="1" arrows="1" fold="1" page="0" pageScale="1" pageWidth="850" pageHeight="1100" background="#FFFFFF" math="0" shadow="0">
      <root>
        <mxCell id="0" />
        <mxCell id="1" parent="0" />
        <mxCell id="4c5mpzNU6QVe4-b5ZhmQ-7" value="" style="whiteSpace=wrap;html=1;aspect=fixed;fillStyle=hatch;gradientColor=none;gradientDirection=radial;opacity=60;shadow=1;" vertex="1" parent="1">
          <mxGeometry x="-18.37" y="-55.37" width="385" height="385" as="geometry" />
        </mxCell>
        <mxCell id="4c5mpzNU6QVe4-b5ZhmQ-1" value="" style="ellipse;whiteSpace=wrap;html=1;aspect=fixed;gradientColor=none;fillStyle=cross-hatch;fillColor=default;shadow=1;" vertex="1" parent="1">
          <mxGeometry x="52.01" y="15.01" width="244.25" height="244.25" as="geometry" />
        </mxCell>
        <mxCell id="4c5mpzNU6QVe4-b5ZhmQ-3" value="p" style="text;strokeColor=none;fillColor=none;html=1;align=center;verticalAlign=middle;whiteSpace=wrap;rounded=0;fontSize=16;" vertex="1" parent="1">
          <mxGeometry x="146.13" y="116.13" width="56" height="42" as="geometry" />
        </mxCell>
        <mxCell id="4c5mpzNU6QVe4-b5ZhmQ-8" value="Universe = p AND (NOT p)" style="text;strokeColor=none;fillColor=none;html=1;align=center;verticalAlign=middle;whiteSpace=wrap;rounded=0;fontSize=16;" vertex="1" parent="1">
          <mxGeometry x="65.69999999999999" y="340" width="216.87" height="30" as="geometry" />
        </mxCell>
        <mxCell id="4c5mpzNU6QVe4-b5ZhmQ-12" value="NOT p" style="text;strokeColor=none;fillColor=none;html=1;align=center;verticalAlign=middle;whiteSpace=wrap;rounded=0;fontSize=16;" vertex="1" parent="1">
          <mxGeometry x="264" y="259.26" width="60" height="30" as="geometry" />
        </mxCell>
      </root>
    </mxGraphModel>
  </diagram>
</mxfile>
